<svg xmlns="http://www.w3.org/2000/svg" viewBox="0 0 512 512">
  <defs>
    <linearGradient id="bg" x1="0" y1="0" x2="0" y2="1">
      <stop offset="0%" stop-color="#020617"/>
      <stop offset="100%" stop-color="#0f172a"/>
    </linearGradient>
    <linearGradient id="flame" x1="0" y1="0" x2="0" y2="1">
      <stop offset="0%" stop-color="#ffffff"/>
      <stop offset="30%" stop-color="#38bdf8"/>
      <stop offset="100%" stop-color="transparent"/>
    </linearGradient>
  </defs>
  <rect width="512" height="512" rx="100" fill="url(#bg)"/>
  <!-- Stars -->
  <circle cx="90" cy="110" r="3" fill="#e0f2fe" opacity="0.8"/>
  <circle cx="420" cy="90" r="2.5" fill="#e0f2fe" opacity="0.7"/>
  <circle cx="400" cy="380" r="3" fill="#e0f2fe" opacity="0.85"/>
  <circle cx="110" cy="400" r="2" fill="#e0f2fe" opacity="0.6"/>
  <!-- Terrain & Landing Pad -->
  <path d="M 40 420 L 160 390 L 352 390 L 472 420" stroke="#334155" stroke-width="6" fill="none" stroke-linecap="round"/>
  <line x1="170" y1="390" x2="342" y2="390" stroke="#34d399" stroke-width="8" stroke-linecap="round"/>
  <circle cx="170" cy="390" r="8" fill="#10b981"/>
  <circle cx="342" cy="390" r="8" fill="#10b981"/>
  <!-- Thruster Fire -->
  <polygon points="205,295 240,295 222,380" fill="url(#flame)"/>
  <polygon points="272,295 307,295 290,380" fill="url(#flame)"/>
  <!-- Lander Legs -->
  <line x1="180" y1="230" x2="140" y2="320" stroke="#94a3b8" stroke-width="6" stroke-linecap="round"/>
  <line x1="130" y1="320" x2="150" y2="320" stroke="#38bdf8" stroke-width="8" stroke-linecap="round"/>
  <line x1="332" y1="230" x2="372" y2="320" stroke="#94a3b8" stroke-width="6" stroke-linecap="round"/>
  <line x1="362" y1="320" x2="382" y2="320" stroke="#38bdf8" stroke-width="8" stroke-linecap="round"/>
  <!-- Hull Body -->
  <polygon points="256,120 340,195 330,295 182,295 172,195" fill="#0f172a" stroke="#38bdf8" stroke-width="6" stroke-linejoin="round"/>
  <!-- Cockpit Canopy -->
  <polygon points="256,145 300,195 285,230 227,230 212,195" fill="#0284c7" stroke="#e0f2fe" stroke-width="3" stroke-linejoin="round"/>
</svg>